<svg xmlns="http://www.w3.org/2000/svg" version="1.1" xmlns:xlink="http://www.w3.org/1999/xlink" xmlns:svgjs="http://svgjs.dev/svgjs" width="1000" height="1000" viewBox="0 0 1000 1000"><rect width="1000" height="1000" fill="#ffffff"></rect><g transform="matrix(0.7,0,0,0.7,149.57575757575756,282.1265587044535)"><svg viewBox="0 0 396 247" data-background-color="#ffffff" preserveAspectRatio="xMidYMid meet" height="623" width="1000" xmlns="http://www.w3.org/2000/svg" xmlns:xlink="http://www.w3.org/1999/xlink"><defs></defs><g id="tight-bounds" transform="matrix(1,0,0,1,0.2400000000000091,-0.09999999999999432)"><svg viewBox="0 0 395.52 247.2" height="247.2" width="395.52"><g><svg></svg></g><g><svg viewBox="0 0 395.52 247.2" height="247.2" width="395.52"><g transform="matrix(1,0,0,1,75.54432,71.39704594683766)"><svg viewBox="0 0 244.43135999999998 104.40590810632466" height="104.40590810632466" width="244.43135999999998"><g><svg viewBox="0 0 244.43135999999998 104.40590810632466" height="104.40590810632466" width="244.43135999999998"><g><svg viewBox="0 0 244.43135999999998 104.40590810632466" height="104.40590810632466" width="244.43135999999998"><g><svg viewBox="0 0 244.43135999999998 104.40590810632466" height="104.40590810632466" width="244.43135999999998"><g><svg viewBox="0 0 244.43135999999998 104.40590810632466" height="104.40590810632466" width="244.43135999999998"><g><svg viewBox="0 0 244.43135999999998 62.49089917755816" height="62.49089917755816" width="244.43135999999998"><g transform="matrix(1,0,0,1,0,0)"><svg width="244.43135999999998" viewBox="4.050000190734863 -39.70000076293945 156.83999633789062 40.10000228881836" height="62.49089917755816" data-palette-color="#4790fc"><path d="M9.95-34.65L9.95-2.1Q9.95 0.3 7 0.3L7 0.3Q4.05 0.3 4.05-2.1L4.05-2.1 4.05-36.7Q4.05-37.85 4.7-38.78 5.35-39.7 7.2-39.7L7.2-39.7 24.2-39.7Q26-39.7 26.1-37.2L26.1-37.2Q26.2-34.65 24.2-34.65L24.2-34.65 9.95-34.65ZM22.75-20.65L22.75-20.65Q22.75-19.8 22.43-19.03 22.1-18.25 21.53-17.7 20.95-17.15 20.2-16.82 19.45-16.5 18.55-16.5L18.55-16.5Q16.85-16.5 15.65-17.7 14.45-18.9 14.45-20.65L14.45-20.65Q14.45-22.4 15.65-23.6 16.85-24.8 18.55-24.8L18.55-24.8Q19.45-24.8 20.2-24.48 20.95-24.15 21.53-23.58 22.1-23 22.43-22.25 22.75-21.5 22.75-20.65ZM45.2 0L38.65 0Q37.1 0 35.7-0.43 34.3-0.85 33-1.65L33-1.65 33-1.6Q30.55-3.15 30.55-7.3L30.55-7.3 30.55-9.75Q30.55-11.8 31.27-13.33 32-14.85 33.3-15.75L33.3-15.75 33.25-15.75Q34.5-16.6 35.9-17.03 37.3-17.45 38.6-17.45L38.6-17.45 49.65-17.45 49.65-22.1Q49.65-23.35 48.87-24.38 48.1-25.4 46.25-25.4L46.25-25.4 40.4-25.4Q38.5-25.4 37.77-24.48 37.05-23.55 37.05-22.3L37.05-22.3 37.05-21.9Q37.05-19.3 34.25-19.3L34.25-19.3Q31.45-19.3 31.45-21.9L31.45-21.9 31.45-22.35Q31.45-24.4 32.17-25.8 32.9-27.2 34.15-28.15L34.15-28.15 34.1-28.15Q35.4-29 36.82-29.55 38.25-30.1 39.55-30.1L39.55-30.1 47.15-30.1Q48.4-30.1 49.82-29.55 51.25-29 52.5-28.15L52.5-28.15 52.45-28.15Q53.75-27.2 54.45-25.68 55.15-24.15 55.15-22.15L55.15-22.15 55.15-2.1Q55.15 0.3 52.4 0.3L52.4 0.3Q51.85 0.3 51.37 0.25 50.9 0.2 50.52-0.03 50.15-0.25 49.92-0.68 49.7-1.1 49.7-1.8L49.7-1.8 49.65-12.75 39.55-12.75Q38.45-12.75 37.85-12.5 37.25-12.25 36.9-11.7L36.9-11.7Q36.5-10.85 36.32-10.38 36.15-9.9 36.15-9.3L36.15-9.3 36.15-7.35Q36.15-6.05 36.92-5.38 37.7-4.7 39.6-4.7L39.6-4.7 45.2-4.7Q47.05-4.7 47.05-2.35L47.05-2.35Q47.05-1.35 46.6-0.68 46.15 0 45.2 0L45.2 0ZM70.5-17.5L77.84-17.5Q79.09-17.5 80.52-16.93 81.95-16.35 83.2-15.5L83.2-15.5 83.15-15.5Q84.45-14.55 85.15-13.05 85.84-11.55 85.84-9.45L85.84-9.45 85.84-7.95Q85.84-3.85 83.15-1.9L83.15-1.9Q81.84-0.9 80.5-0.45 79.15 0 77.84 0L77.84 0 69.34 0Q68.05 0 66.7-0.45 65.34-0.9 64.05-1.9L64.05-1.9Q61.34-3.8 61.34-7.95L61.34-7.95 61.34-8.55Q61.34-10.7 64.09-10.65L64.09-10.65Q66.89-10.65 66.89-8.55L66.89-8.55 66.89-8Q66.89-6.8 67.65-5.75 68.4-4.7 70.3-4.7L70.3-4.7 76.9-4.7Q78.8-4.7 79.55-5.75 80.3-6.8 80.3-8L80.3-8 80.3-9.4Q80.3-10.05 80.12-10.65 79.95-11.25 79.55-11.73 79.15-12.2 78.5-12.5 77.84-12.8 76.9-12.8L76.9-12.8 69.59-12.8Q67.05-12.8 64.25-14.6L64.25-14.6Q61.59-16.3 61.59-20.45L61.59-20.45 61.59-22.15Q61.59-24.15 62.3-25.68 63-27.2 64.3-28.15L64.3-28.15 64.25-28.15Q65.5-29 66.89-29.55 68.3-30.1 69.59-30.1L69.59-30.1 77.59-30.1Q78.9-30.1 80.27-29.55 81.65-29 82.95-28.15L82.95-28.15 82.9-28.15Q84.2-27.2 84.9-25.68 85.59-24.15 85.59-22.15L85.59-22.15 85.59-21.7Q85.59-20.65 84.9-20.18 84.2-19.7 82.84-19.65L82.84-19.65Q80.09-19.6 80.09-21.7L80.09-21.7 80.09-22.1Q80.09-23.35 79.32-24.38 78.55-25.4 76.7-25.4L76.7-25.4 70.5-25.4Q68.65-25.4 67.87-24.38 67.09-23.35 67.09-22.1L67.09-22.1 67.09-20.9Q67.09-19.6 67.87-18.55 68.65-17.5 70.5-17.5L70.5-17.5ZM103.04-25.4L98.89-25.4 98.89-7.2Q98.89-5.9 99.44-5.2 99.99-4.5 101.79-4.5L101.79-4.5 103.09-4.5Q105.04-4.5 104.94-2.2L104.94-2.2Q104.94 0.15 103.09 0.15L103.09 0.15 101.44 0.15Q99.84 0.15 98.44-0.28 97.04-0.7 95.74-1.5L95.74-1.5 95.74-1.45Q93.29-3.05 93.29-7.15L93.29-7.15 93.29-25.4 91.34-25.4Q89.54-25.4 89.44-27.75L89.44-27.75Q89.44-30.1 91.34-30.1L91.34-30.1 93.29-30.1 93.29-35.45Q93.29-37.85 96.14-37.85L96.14-37.85Q98.89-37.85 98.89-35.45L98.89-35.45 98.89-30.1 103.04-30.1Q104.99-30.1 104.89-27.75L104.89-27.75Q104.89-25.4 103.04-25.4L103.04-25.4ZM114.79-22.15L114.79-8Q114.79-6.8 115.57-5.75 116.34-4.7 118.19-4.7L118.19-4.7 124.44-4.7Q126.29-4.7 127.07-5.63 127.84-6.55 127.84-7.75L127.84-7.75 127.84-8.3Q127.84-10.65 130.59-10.65L130.59-10.65Q133.34-10.65 133.34-8.3L133.34-8.3 133.34-7.7Q133.34-5.6 132.67-4.25 131.99-2.9 130.64-1.9L130.64-1.9Q127.99 0 125.34 0L125.34 0 116.94 0Q114.29 0 111.79-1.9L111.79-1.9Q110.59-2.9 109.94-4.42 109.29-5.95 109.29-7.95L109.29-7.95 109.29-22.2Q109.29-26.25 111.79-28.2L111.79-28.2Q113.04-29.1 114.37-29.63 115.69-30.15 116.94-30.15L116.94-30.15 125.34-30.15Q126.54-30.15 127.99-29.68 129.44-29.2 130.69-28.4L130.69-28.4Q131.89-27.55 132.62-26.05 133.34-24.55 133.34-22.5L133.34-22.5 133.34-15.75Q133.34-14.6 132.67-13.7 131.99-12.8 130.19-12.8L130.19-12.8 119.39-12.8Q117.59-12.8 117.49-15.15L117.49-15.15Q117.49-17.5 119.39-17.5L119.39-17.5 127.89-17.5 127.84-22.15Q127.84-23.4 127.07-24.43 126.29-25.45 124.44-25.45L124.44-25.45 118.19-25.45Q116.34-25.45 115.57-24.43 114.79-23.4 114.79-22.15L114.79-22.15ZM159.94-26.45L152.14-15.3 160.54-3.45Q160.89-2.95 160.89-2.35L160.89-2.35Q160.89-1.3 159.39-0.25L159.39-0.25Q158.44 0.4 157.59 0.4L157.59 0.4Q157.09 0.4 156.56 0.05 156.04-0.3 155.59-0.85L155.59-0.85 148.74-10.5Q147.99-9.45 147.11-8.2 146.24-6.95 145.34-5.68 144.44-4.4 143.56-3.15 142.69-1.9 141.94-0.85L141.94-0.85Q140.99 0.4 139.89 0.4L139.89 0.4Q138.94 0.4 138.09-0.25L138.09-0.25Q137.39-0.75 137.01-1.23 136.64-1.7 136.64-2.3L136.64-2.3Q136.64-2.9 137.04-3.45L137.04-3.45 145.34-15.3Q143.49-17.95 141.44-20.85 139.39-23.75 137.54-26.45L137.54-26.45Q137.34-26.8 137.16-27.23 136.99-27.65 136.99-27.9L136.99-27.9Q136.99-28.95 138.39-29.85L138.39-29.85 138.34-29.85Q138.84-30.1 139.26-30.28 139.69-30.45 140.09-30.45L140.09-30.45Q141.44-30.45 142.44-29L142.44-29 148.74-20.05 155.04-29Q156.09-30.45 157.39-30.45L157.39-30.45Q157.84-30.45 158.24-30.28 158.64-30.1 159.14-29.85L159.14-29.85 159.09-29.85Q160.54-28.95 160.54-27.9L160.54-27.9Q160.54-27.3 159.94-26.45L159.94-26.45Z" opacity="1" transform="matrix(1,0,0,1,0,0)" fill="#4790fc" class="undefined-text-0" data-fill-palette-color="primary" id="text-0"></path></svg></g></svg></g><g transform="matrix(1,0,0,1,0,77.24350069179938)"><svg viewBox="0 0 244.43135999999998 27.162407414525276" height="27.162407414525276" width="244.43135999999998"><g transform="matrix(1,0,0,1,0,0)"><svg width="244.43135999999998" viewBox="2 -35.349998474121094 322.57000732421875 35.849998474121094" height="27.162407414525276" data-palette-color="#ed2326"><path d="M11.2-0.05L2.25 0Q2 0 2-0.25L2-0.25 2.1-34.6Q2.1-34.8 2.3-34.8L2.3-34.8 11.65-34.85Q14.4-34.9 16.68-33.55 18.95-32.2 20.3-29.93 21.65-27.65 21.65-24.9L21.65-24.9 21.65-10.55Q21.65-7.65 20.25-5.28 18.85-2.9 16.5-1.5 14.15-0.1 11.2-0.05L11.2-0.05ZM8.15-28.8L8.1-6.15 11.2-6.15Q13.05-6.15 14.33-7.45 15.6-8.75 15.6-10.55L15.6-10.55 15.6-24.95Q15.6-26.55 14.43-27.73 13.25-28.9 11.65-28.85L11.65-28.85 8.15-28.8ZM41.95 0L25.8 0Q25.6 0 25.6-0.25L25.6-0.25 25.65-34.6Q25.65-34.8 25.85-34.8L25.85-34.8 41.9-34.8Q42.1-34.8 42.1-34.55L42.1-34.55 42.1-28.95Q42.1-28.75 41.9-28.75L41.9-28.75 31.65-28.75 31.65-20.95 41.9-20.95Q42.1-20.95 42.1-20.75L42.1-20.75 42.15-15.1Q42.15-14.9 41.95-14.9L41.95-14.9 31.65-14.9 31.65-6.15 41.95-6.15Q42.15-6.15 42.15-5.9L42.15-5.9 42.15-0.2Q42.15 0 41.95 0L41.95 0ZM62.95 0L46.8 0Q46.59 0 46.59-0.25L46.59-0.25 46.64-34.55Q46.64-34.8 46.89-34.8L46.89-34.8 52.45-34.8Q52.7-34.8 52.7-34.55L52.7-34.55 52.64-6.15 62.95-6.15Q63.2-6.15 63.2-5.9L63.2-5.9 63.2-0.25Q63.2 0 62.95 0L62.95 0ZM72.34 0L66.69 0Q66.44 0 66.44-0.25L66.44-0.25 66.49-34.6Q66.49-34.8 66.69-34.8L66.69-34.8 72.29-34.8Q72.49-34.8 72.49-34.6L72.49-34.6 72.54-0.25Q72.54 0 72.34 0L72.34 0ZM88.59 0L82.54 0Q82.34 0 82.29-0.25L82.29-0.25 75.39-34.6Q75.34-34.8 75.59-34.8L75.59-34.8 81.24-34.8Q81.44-34.8 81.49-34.6L81.49-34.6 85.59-11.7 89.59-34.6Q89.64-34.8 89.84-34.8L89.84-34.8 95.44-34.8Q95.69-34.8 95.64-34.6L95.64-34.6 88.84-0.25Q88.79 0 88.59 0L88.59 0ZM114.94 0L98.79 0Q98.59 0 98.59-0.25L98.59-0.25 98.64-34.6Q98.64-34.8 98.84-34.8L98.84-34.8 114.89-34.8Q115.09-34.8 115.09-34.55L115.09-34.55 115.09-28.95Q115.09-28.75 114.89-28.75L114.89-28.75 104.64-28.75 104.64-20.95 114.89-20.95Q115.09-20.95 115.09-20.75L115.09-20.75 115.14-15.1Q115.14-14.9 114.94-14.9L114.94-14.9 104.64-14.9 104.64-6.15 114.94-6.15Q115.14-6.15 115.14-5.9L115.14-5.9 115.14-0.2Q115.14 0 114.94 0L114.94 0ZM125.44 0L119.79 0Q119.59 0 119.59-0.25L119.59-0.25 119.69-34.6Q119.69-34.8 119.89-34.8L119.89-34.8 129.99-34.8Q132.69-34.8 134.96-33.48 137.24-32.15 138.59-29.93 139.94-27.7 139.94-24.9L139.94-24.9Q139.94-23.05 139.39-21.58 138.84-20.1 138.09-19.07 137.34-18.05 136.74-17.55L136.74-17.55Q139.44-14.55 139.44-10.5L139.44-10.5 139.49-0.25Q139.49 0 139.24 0L139.24 0 133.59 0Q133.39 0 133.39-0.15L133.39-0.15 133.39-10.5Q133.39-12.3 132.11-13.63 130.84-14.95 128.99-14.95L128.99-14.95 125.69-14.95 125.64-0.25Q125.64 0 125.44 0L125.44 0ZM125.69-28.8L125.69-20.95 129.99-20.95Q131.53-20.95 132.74-22.1 133.94-23.25 133.94-24.9L133.94-24.9Q133.94-26.5 132.76-27.65 131.59-28.8 129.99-28.8L129.99-28.8 125.69-28.8ZM152.58 0L146.83 0Q146.68 0 146.68-0.2L146.68-0.2 146.73-14.4 140.03-34.6Q139.98-34.8 140.18-34.8L140.18-34.8 145.73-34.8Q145.98-34.8 146.03-34.6L146.03-34.6 149.73-21.15 153.48-34.6Q153.53-34.8 153.73-34.8L153.73-34.8 159.33-34.8Q159.53-34.8 159.48-34.6L159.48-34.6 152.73-14.6 152.78-0.2Q152.78 0 152.58 0L152.58 0ZM178.83 0.5L178.83 0.5Q176.08 0.5 173.85-0.88 171.63-2.25 170.33-4.55 169.03-6.85 169.03-9.7L169.03-9.7 169.08-25.3Q169.08-28.05 170.35-30.33 171.63-32.6 173.85-33.98 176.08-35.35 178.83-35.35L178.83-35.35Q181.58-35.35 183.78-34 185.98-32.65 187.28-30.38 188.58-28.1 188.58-25.3L188.58-25.3 188.58-23Q188.58-22.8 188.38-22.8L188.38-22.8 182.78-22.8Q182.58-22.8 182.58-23L182.58-23 182.58-25.3Q182.58-26.95 181.5-28.15 180.43-29.35 178.83-29.35L178.83-29.35Q177.03-29.35 176.08-28.13 175.13-26.9 175.13-25.3L175.13-25.3 175.13-9.7Q175.13-7.85 176.2-6.7 177.28-5.55 178.83-5.55L178.83-5.55Q180.43-5.55 181.5-6.83 182.58-8.1 182.58-9.7L182.58-9.7 182.58-12Q182.58-12.2 182.78-12.2L182.78-12.2 188.43-12.2Q188.63-12.2 188.63-12L188.63-12 188.63-9.7Q188.63-6.85 187.3-4.55 185.98-2.25 183.78-0.88 181.58 0.5 178.83 0.5ZM201.53 0.5L201.53 0.5Q198.83 0.5 196.6-0.88 194.38-2.25 193.03-4.53 191.68-6.8 191.68-9.55L191.68-9.55 191.73-25.4Q191.73-28.15 193.05-30.4 194.38-32.65 196.63-34 198.88-35.35 201.53-35.35L201.53-35.35Q204.23-35.35 206.43-34 208.63-32.65 209.95-30.4 211.28-28.15 211.28-25.4L211.28-25.4 211.33-9.55Q211.33-6.8 210-4.53 208.68-2.25 206.45-0.88 204.23 0.5 201.53 0.5ZM201.53-5.55L201.53-5.55Q203.03-5.55 204.15-6.78 205.28-8 205.28-9.55L205.28-9.55 205.23-25.4Q205.23-27.05 204.18-28.2 203.13-29.35 201.53-29.35L201.53-29.35Q199.98-29.35 198.88-28.23 197.78-27.1 197.78-25.4L197.78-25.4 197.78-9.55Q197.78-7.9 198.88-6.73 199.98-5.55 201.53-5.55ZM220.97 0L215.32 0Q215.12 0 215.12-0.25L215.12-0.25 215.22-34.6Q215.22-34.8 215.42-34.8L215.42-34.8 221.52-34.8Q221.72-34.8 221.87-34.6L221.87-34.6 226.42-28 230.97-34.6Q231.12-34.8 231.32-34.8L231.32-34.8 237.47-34.8Q237.67-34.8 237.67-34.6L237.67-34.6 237.77-0.25Q237.77 0 237.57 0L237.57 0 231.92 0Q231.72 0 231.72-0.25L231.72-0.25 231.67-25.75 226.42-18.15 221.22-25.75 221.17-0.25Q221.17 0 220.97 0L220.97 0ZM247.82 0L242.22 0Q241.97 0 241.97-0.25L241.97-0.25 242.07-34.6Q242.07-34.8 242.27-34.8L242.27-34.8 251.87-34.8Q256.47-34.8 259.15-32 261.82-29.2 261.82-24.4L261.82-24.4Q261.82-20.85 260.42-18.25 259.02-15.65 256.77-14.25 254.52-12.85 251.87-12.85L251.87-12.85 248.07-12.85 248.07-0.25Q248.07 0 247.82 0L247.82 0ZM248.07-28.8L248.07-18.9 251.87-18.9Q253.47-18.9 254.65-20.43 255.82-21.95 255.82-24.4L255.82-24.4Q255.82-26.35 254.77-27.6 253.72-28.85 251.87-28.85L251.87-28.85 248.07-28.8ZM261.02-0.25L261.02-0.25 267.22-34.6Q267.27-34.8 267.47-34.8L267.47-34.8 274.72-34.8Q274.92-34.8 274.97-34.6L274.97-34.6 280.92-0.25Q280.97 0 280.72 0L280.72 0 275.17 0Q274.97 0 274.92-0.25L274.92-0.25 274.37-3.9 267.57-3.9 267.02-0.25Q266.97 0 266.77 0L266.77 0 261.22 0Q261.02 0 261.02-0.25ZM270.82-23.3L268.57-9.25 273.37-9.25 271.32-23.3 271.02-25.15 270.82-23.3ZM289.52 0L284.52 0Q284.12 0 284.12-0.35L284.12-0.35 284.07-34.4Q284.07-34.8 284.47-34.8L284.47-34.8 288.97-34.8 297.42-15.1 297.17-34.4Q297.17-34.8 297.62-34.8L297.62-34.8 302.57-34.8Q302.87-34.8 302.87-34.4L302.87-34.4 302.92-0.3Q302.92 0 302.67 0L302.67 0 298.27 0 289.62-18.4 289.97-0.4Q289.97 0 289.52 0L289.52 0ZM317.66 0L311.91 0Q311.76 0 311.76-0.2L311.76-0.2 311.81-14.4 305.11-34.6Q305.06-34.8 305.26-34.8L305.26-34.8 310.81-34.8Q311.06-34.8 311.11-34.6L311.11-34.6 314.81-21.15 318.56-34.6Q318.61-34.8 318.81-34.8L318.81-34.8 324.41-34.8Q324.61-34.8 324.56-34.6L324.56-34.6 317.81-14.6 317.86-0.2Q317.86 0 317.66 0L317.66 0Z" opacity="1" transform="matrix(1,0,0,1,0,0)" fill="#ed2326" class="undefined-text-1" data-fill-palette-color="secondary" id="text-1"></path></svg></g></svg></g></svg></g></svg></g></svg></g></svg></g></svg></g><g><path d="M151.089 190.556A122.216 122.216 0 1 0 151.089 56.644L156.724 56.644A116.58 116.58 0 1 1 156.724 190.556L151.089 190.556" fill="#4790fc" stroke="transparent" data-fill-palette-color="tertiary"></path></g></svg></g></svg><rect width="395.52" height="247.2" fill="none" stroke="none" visibility="hidden"></rect></g></svg></g></svg>